<?xml version="1.0" encoding="utf-8"?>
<!-- Generator: Adobe Illustrator 18.1.0, SVG Export Plug-In . SVG Version: 6.00 Build 0)  -->
<svg version="1.1" id="Layer_1" xmlns="http://www.w3.org/2000/svg" xmlns:xlink="http://www.w3.org/1999/xlink" x="0px" y="0px"
	 viewBox="0 0 110 32" enable-background="new 0 0 110 32" xml:space="preserve">
<path d="M16.9,15.4c0-2.4-0.5-4.4-1.5-5.8c-1-1.5-2.4-2.2-4.1-2.2c-1,0-2,0.2-2.7,0.7c-0.8,0.5-1.4,1.1-1.9,1.9L6.4,7.7H5.1v21h1.6
	v-7.9c0.5,0.7,1.1,1.3,1.9,1.7c0.8,0.4,1.7,0.6,2.7,0.6c1.7,0,3.1-0.7,4.1-2c1-1.4,1.5-3.2,1.5-5.4V15.4z M15.2,15.7
	c0,1.8-0.4,3.3-1.1,4.4c-0.7,1.1-1.8,1.7-3.2,1.7c-1,0-1.9-0.2-2.6-0.7c-0.7-0.5-1.2-1.1-1.6-2v-7.3c0.3-0.9,0.9-1.6,1.5-2.1
	c0.7-0.5,1.6-0.8,2.7-0.8c1.4,0,2.5,0.6,3.2,1.8c0.7,1.2,1.1,2.8,1.1,4.7V15.7z"/>
<path d="M20.5,1h-1.6v21.9h1.6V12.2c0.4-1,0.9-1.8,1.6-2.4c0.7-0.6,1.7-0.9,2.8-0.9c1.1,0,2,0.4,2.6,1.1c0.6,0.7,0.9,1.9,0.9,3.5
	v9.4H30v-9.4c0-2.1-0.4-3.6-1.2-4.6c-0.8-1-2-1.5-3.5-1.5c-1.1,0-2,0.3-2.8,0.8s-1.5,1.2-1.9,2.1V1z"/>
<path d="M31.7,15.5c0,2.2,0.6,4.1,1.8,5.5c1.2,1.4,2.8,2.1,4.7,2.1c1.9,0,3.5-0.7,4.7-2.1c1.2-1.4,1.8-3.3,1.8-5.5v-0.5
	c0-2.2-0.6-4.1-1.8-5.5c-1.2-1.4-2.7-2.1-4.7-2.1c-1.9,0-3.5,0.7-4.7,2.1c-1.2,1.4-1.8,3.3-1.8,5.5V15.5z M33.3,15.1
	c0-1.7,0.4-3.2,1.3-4.4c0.9-1.2,2-1.8,3.6-1.8s2.7,0.6,3.6,1.8s1.3,2.7,1.3,4.4v0.5c0,1.8-0.4,3.2-1.3,4.4c-0.9,1.2-2,1.8-3.5,1.8
	c-1.5,0-2.7-0.6-3.6-1.8c-0.9-1.2-1.3-2.7-1.3-4.4V15.1z"/>
<path d="M47.2,3.8v3.9h-2.5v1.4h2.5V19c0,1.5,0.3,2.5,0.9,3.2c0.6,0.7,1.4,1,2.4,1c0.4,0,0.8,0,1.2-0.1c0.4-0.1,0.7-0.2,1-0.3
	l-0.2-1.2c-0.3,0.1-0.6,0.1-0.9,0.1c-0.2,0-0.5,0-0.8,0c-0.6,0-1-0.2-1.4-0.6C49,20.7,48.8,20,48.8,19V9.1h3.2V7.7h-3.2V3.8H47.2z"
	/>
<path d="M52.7,15.5c0,2.2,0.6,4.1,1.8,5.5c1.2,1.4,2.8,2.1,4.7,2.1c1.9,0,3.5-0.7,4.7-2.1c1.2-1.4,1.8-3.3,1.8-5.5v-0.5
	c0-2.2-0.6-4.1-1.8-5.5c-1.2-1.4-2.7-2.1-4.7-2.1c-1.9,0-3.5,0.7-4.7,2.1c-1.2,1.4-1.8,3.3-1.8,5.5V15.5z M54.3,15.1
	c0-1.7,0.4-3.2,1.3-4.4c0.9-1.2,2-1.8,3.6-1.8s2.7,0.6,3.6,1.8s1.3,2.7,1.3,4.4v0.5c0,1.8-0.4,3.2-1.3,4.4c-0.9,1.2-2,1.8-3.5,1.8
	c-1.5,0-2.7-0.6-3.6-1.8c-0.9-1.2-1.3-2.7-1.3-4.4V15.1z"/>
<path d="M79.1,15.4c0-2.4-0.5-4.4-1.5-5.8c-1-1.5-2.4-2.2-4.1-2.2c-1,0-1.9,0.2-2.7,0.7c-0.8,0.5-1.4,1.1-1.9,2V1h-1.6v21.9h1.4
	l0.2-2.3c0.5,0.8,1.1,1.5,1.9,1.9c0.8,0.4,1.7,0.7,2.8,0.7c1.7,0,3.1-0.7,4.1-2c1-1.4,1.5-3.2,1.5-5.4V15.4z M77.4,15.7
	c0,1.8-0.4,3.3-1.1,4.4c-0.7,1.1-1.8,1.6-3.2,1.6c-1.1,0-2-0.3-2.7-0.8c-0.7-0.5-1.3-1.2-1.6-2.1V12c0.3-0.9,0.8-1.7,1.5-2.2
	c0.7-0.6,1.6-0.9,2.7-0.9c1.4,0,2.5,0.6,3.2,1.8c0.7,1.2,1.1,2.8,1.1,4.7V15.7z"/>
<path d="M80.1,15.5c0,2.2,0.6,4.1,1.8,5.5c1.2,1.4,2.8,2.1,4.7,2.1c1.9,0,3.5-0.7,4.7-2.1c1.2-1.4,1.8-3.3,1.8-5.5v-0.5
	c0-2.2-0.6-4.1-1.8-5.5c-1.2-1.4-2.7-2.1-4.7-2.1c-1.9,0-3.5,0.7-4.7,2.1c-1.2,1.4-1.8,3.3-1.8,5.5V15.5z M81.8,15.1
	c0-1.7,0.4-3.2,1.3-4.4c0.9-1.2,2-1.8,3.6-1.8c1.5,0,2.7,0.6,3.6,1.8c0.9,1.2,1.3,2.7,1.3,4.4v0.5c0,1.8-0.4,3.2-1.3,4.4
	c-0.9,1.2-2,1.8-3.5,1.8c-1.5,0-2.7-0.6-3.6-1.8c-0.9-1.2-1.3-2.7-1.3-4.4V15.1z"/>
<path d="M95.2,7.7h-1.9l5,7.4L93,22.9H95l4.2-6.5l4.2,6.5h1.9l-5.2-7.7l5-7.4H103l-4,6.2L95.2,7.7z"/>
<linearGradient id="SVGID_1_" gradientUnits="userSpaceOnUse" x1="10.9727" y1="8.399" x2="10.9727" y2="29.694">
	<stop  offset="0" style="stop-color:#FFFFFF"/>
	<stop  offset="1" style="stop-color:#DFDFDF"/>
</linearGradient>
<path fill="url(#SVGID_1_)" d="M16.9,16.4c0-2.4-0.5-4.4-1.5-5.8c-1-1.5-2.4-2.2-4.1-2.2c-1,0-2,0.2-2.7,0.7
	C7.8,9.5,7.1,10.2,6.7,11L6.4,8.7H5.1v21h1.6v-7.9c0.5,0.7,1.1,1.3,1.9,1.7c0.8,0.4,1.7,0.6,2.7,0.6c1.7,0,3.1-0.7,4.1-2
	c1-1.4,1.5-3.2,1.5-5.4V16.4z M15.2,16.7c0,1.8-0.4,3.3-1.1,4.4c-0.7,1.1-1.8,1.7-3.2,1.7c-1,0-1.9-0.2-2.6-0.7
	c-0.7-0.5-1.2-1.1-1.6-2v-7.3c0.3-0.9,0.9-1.6,1.5-2.1c0.7-0.5,1.6-0.8,2.7-0.8c1.4,0,2.5,0.6,3.2,1.8c0.7,1.2,1.1,2.8,1.1,4.7V16.7
	z"/>
<linearGradient id="SVGID_2_" gradientUnits="userSpaceOnUse" x1="24.4266" y1="1.9741" x2="24.4266" y2="23.8583">
	<stop  offset="0" style="stop-color:#FFFFFF"/>
	<stop  offset="1" style="stop-color:#DFDFDF"/>
</linearGradient>
<path fill="url(#SVGID_2_)" d="M20.5,2h-1.6v21.9h1.6V13.1c0.4-1,0.9-1.8,1.6-2.4c0.7-0.6,1.7-0.9,2.8-0.9c1.1,0,2,0.4,2.6,1.1
	c0.6,0.7,0.9,1.9,0.9,3.5v9.4H30v-9.4c0-2.1-0.4-3.6-1.2-4.6c-0.8-1-2-1.5-3.5-1.5c-1.1,0-2,0.3-2.8,0.8s-1.5,1.2-1.9,2.1V2z"/>
<linearGradient id="SVGID_3_" gradientUnits="userSpaceOnUse" x1="38.1304" y1="8.399" x2="38.1304" y2="24.1529">
	<stop  offset="0" style="stop-color:#FFFFFF"/>
	<stop  offset="1" style="stop-color:#DFDFDF"/>
</linearGradient>
<path fill="url(#SVGID_3_)" d="M31.7,16.5c0,2.2,0.6,4.1,1.8,5.5c1.2,1.4,2.8,2.1,4.7,2.1c1.9,0,3.5-0.7,4.7-2.1
	c1.2-1.4,1.8-3.3,1.8-5.5V16c0-2.2-0.6-4.1-1.8-5.5c-1.2-1.4-2.7-2.1-4.7-2.1c-1.9,0-3.5,0.7-4.7,2.1c-1.2,1.4-1.8,3.3-1.8,5.5V16.5
	z M33.3,16c0-1.7,0.4-3.2,1.3-4.4c0.9-1.2,2-1.8,3.6-1.8s2.7,0.6,3.6,1.8S43,14.3,43,16v0.5c0,1.8-0.4,3.2-1.3,4.4
	c-0.9,1.2-2,1.8-3.5,1.8c-1.5,0-2.7-0.6-3.6-1.8c-0.9-1.2-1.3-2.7-1.3-4.4V16z"/>
<linearGradient id="SVGID_4_" gradientUnits="userSpaceOnUse" x1="48.6534" y1="4.7938" x2="48.6534" y2="24.1529">
	<stop  offset="0" style="stop-color:#FFFFFF"/>
	<stop  offset="1" style="stop-color:#DFDFDF"/>
</linearGradient>
<path fill="url(#SVGID_4_)" d="M47.2,4.8v3.9h-2.5v1.4h2.5v9.9c0,1.5,0.3,2.5,0.9,3.2c0.6,0.7,1.4,1,2.4,1c0.4,0,0.8,0,1.2-0.1
	c0.4-0.1,0.7-0.2,1-0.3l-0.2-1.2c-0.3,0.1-0.6,0.1-0.9,0.1c-0.2,0-0.5,0-0.8,0c-0.6,0-1-0.2-1.4-0.6c-0.3-0.4-0.5-1.1-0.5-2.1v-9.9
	h3.2V8.7h-3.2V4.8H47.2z"/>
<linearGradient id="SVGID_5_" gradientUnits="userSpaceOnUse" x1="59.1225" y1="8.399" x2="59.1225" y2="24.1529">
	<stop  offset="0" style="stop-color:#FFFFFF"/>
	<stop  offset="1" style="stop-color:#DFDFDF"/>
</linearGradient>
<path fill="url(#SVGID_5_)" d="M52.7,16.5c0,2.2,0.6,4.1,1.8,5.5c1.2,1.4,2.8,2.1,4.7,2.1c1.9,0,3.5-0.7,4.7-2.1
	c1.2-1.4,1.8-3.3,1.8-5.5V16c0-2.2-0.6-4.1-1.8-5.5c-1.2-1.4-2.7-2.1-4.7-2.1c-1.9,0-3.5,0.7-4.7,2.1c-1.2,1.4-1.8,3.3-1.8,5.5V16.5
	z M54.3,16c0-1.7,0.4-3.2,1.3-4.4c0.9-1.2,2-1.8,3.6-1.8s2.7,0.6,3.6,1.8S64,14.3,64,16v0.5c0,1.8-0.4,3.2-1.3,4.4
	c-0.9,1.2-2,1.8-3.5,1.8c-1.5,0-2.7-0.6-3.6-1.8c-0.9-1.2-1.3-2.7-1.3-4.4V16z"/>
<linearGradient id="SVGID_6_" gradientUnits="userSpaceOnUse" x1="73.1841" y1="1.9741" x2="73.1841" y2="24.1529">
	<stop  offset="0" style="stop-color:#FFFFFF"/>
	<stop  offset="1" style="stop-color:#DFDFDF"/>
</linearGradient>
<path fill="url(#SVGID_6_)" d="M79.1,16.4c0-2.4-0.5-4.4-1.5-5.8c-1-1.5-2.4-2.2-4.1-2.2c-1,0-1.9,0.2-2.7,0.7
	c-0.8,0.5-1.4,1.1-1.9,2V2h-1.6v21.9h1.4l0.2-2.3c0.5,0.8,1.1,1.5,1.9,1.9c0.8,0.4,1.7,0.7,2.8,0.7c1.7,0,3.1-0.7,4.1-2
	c1-1.4,1.5-3.2,1.5-5.4V16.4z M77.4,16.7c0,1.8-0.4,3.3-1.1,4.4c-0.7,1.1-1.8,1.6-3.2,1.6c-1.1,0-2-0.3-2.7-0.8
	c-0.7-0.5-1.3-1.2-1.6-2.1v-6.9c0.3-0.9,0.8-1.7,1.5-2.2c0.7-0.6,1.6-0.9,2.7-0.9c1.4,0,2.5,0.6,3.2,1.8c0.7,1.2,1.1,2.8,1.1,4.7
	V16.7z"/>
<linearGradient id="SVGID_7_" gradientUnits="userSpaceOnUse" x1="86.5975" y1="8.399" x2="86.5975" y2="24.1529">
	<stop  offset="0" style="stop-color:#FFFFFF"/>
	<stop  offset="1" style="stop-color:#DFDFDF"/>
</linearGradient>
<path fill="url(#SVGID_7_)" d="M80.1,16.5c0,2.2,0.6,4.1,1.8,5.5c1.2,1.4,2.8,2.1,4.7,2.1c1.9,0,3.5-0.7,4.7-2.1
	c1.2-1.4,1.8-3.3,1.8-5.5V16c0-2.2-0.6-4.1-1.8-5.5c-1.2-1.4-2.7-2.1-4.7-2.1c-1.9,0-3.5,0.7-4.7,2.1c-1.2,1.4-1.8,3.3-1.8,5.5V16.5
	z M81.8,16c0-1.7,0.4-3.2,1.3-4.4c0.9-1.2,2-1.8,3.6-1.8c1.5,0,2.7,0.6,3.6,1.8c0.9,1.2,1.3,2.7,1.3,4.4v0.5c0,1.8-0.4,3.2-1.3,4.4
	c-0.9,1.2-2,1.8-3.5,1.8c-1.5,0-2.7-0.6-3.6-1.8c-0.9-1.2-1.3-2.7-1.3-4.4V16z"/>
<linearGradient id="SVGID_8_" gradientUnits="userSpaceOnUse" x1="99.0992" y1="8.6796" x2="99.0992" y2="23.8583">
	<stop  offset="0" style="stop-color:#FFFFFF"/>
	<stop  offset="1" style="stop-color:#DFDFDF"/>
</linearGradient>
<path fill="url(#SVGID_8_)" d="M95.2,8.7h-1.9l5,7.4L93,23.9H95l4.2-6.5l4.2,6.5h1.9l-5.2-7.7l5-7.4H103l-4,6.2L95.2,8.7z"/>
</svg>
